<svg xmlns="http://www.w3.org/2000/svg" width="75" height="23">
    <style>.a{fill:#fff}</style>
    <g fill="none">
        <path d="M28.9 10.1c-1.1 0-1.8-.6-1.8-1.4 0-.9.7-1.4 2-1.5V5.8c0-1.6.5-2.4 1.6-2.4s1.6.8 1.6 2.4v1.4h.3c1.3 0 2 .6 2 1.5s-.7 1.4-2 1.4h-.3v5.7c0 1.6-.5 2.3-1.6 2.3s-1.6-.7-1.6-2.3v-5.7h-.2zM40.1 15.3c1.2 0 2.1-1.1 2.1-2.8 0-1.6-.9-2.7-2.1-2.7-1.2 0-2.1 1-2.1 2.7 0 1.7.9 2.8 2.1 2.8m0-8.5c3.2 0 5.4 2.4 5.4 5.7 0 3.4-2.2 5.8-5.4 5.8s-5.5-2.4-5.5-5.8c0-3.3 2.3-5.7 5.5-5.7M52 15.3c1.2 0 2.1-1.1 2.1-2.8 0-1.6-.9-2.6-2.1-2.6-1.2 0-2.1 1-2.1 2.6 0 1.7.9 2.8 2.1 2.8m-.8 2.9c-2.5 0-4.7-2.4-4.7-5.7 0-3.2 2.3-5.7 5-5.7 1.2 0 2 .4 2.6 1.2.4-.7 1-1.1 1.5-1.1 1.1 0 1.6.8 1.6 2.4v6.5c0 1.9-.1 3.4-.8 4.5-.9 1.5-2.6 2.4-4.9 2.4-3 0-4.7-1.1-4.7-2.4 0-.8.6-1.4 1.4-1.4.8 0 1.7.9 3.4.9 1.6 0 2.6-1 2.6-2.8 0-.1-.1-.2-.1-.4-.7 1.1-1.6 1.6-2.9 1.6M64.2 15.3c1.2 0 2.2-1.1 2.2-2.8 0-1.6-1-2.6-2.2-2.6-1.2 0-2.1 1-2.1 2.6 0 1.7.9 2.8 2.1 2.8m-.7 2.9c-2.6 0-4.7-2.4-4.7-5.7 0-3.2 2.3-5.7 5-5.7 1.1 0 1.9.4 2.6 1.2.4-.7.9-1.1 1.4-1.1 1.1 0 1.7.8 1.7 2.4v6.5c0 1.9-.2 3.4-.8 4.5-.9 1.5-2.6 2.4-4.9 2.4-3 0-4.8-1.1-4.8-2.4 0-.8.6-1.4 1.4-1.4.8 0 1.8.9 3.5.9 1.6 0 2.5-1 2.5-2.8v-.4c-.7 1.1-1.7 1.6-2.9 1.6M73.4 2.3c1.1 0 1.6.8 1.6 2.4v11.1c0 1.6-.5 2.3-1.6 2.3s-1.6-.7-1.6-2.3V4.7c0-1.6.5-2.4 1.6-2.4" class="a"/>
        <circle cx="11.5" cy="11.5" r="8.5" class="a"/>
        <path d="M11.1 17c-3 0-5.4-2.5-5.4-5.5 0-2.5 1.7-4.6 4-5.2v1.6c-1.5.5-2.5 2-2.5 3.6 0 2.2 1.7 4 3.9 4s4-1.8 4-4c0-1.6-1.1-3.1-2.5-3.6V6.3c2.3.6 4 2.7 4 5.2 0 3-2.5 5.5-5.5 5.5zm-.8-12.5h1.6v7.7h-1.6V4.5zm.8-4.4C5 .1 0 5.1 0 11.3c0 6.1 5 11.1 11.1 11.1 6.2 0 11.1-5 11.1-11.1C22.2 5.1 17.3.1 11.1.1z" fill="#E20505"/>
    </g>
</svg>