<svg xmlns="http://www.w3.org/2000/svg" width="70" height="53">
    <path d="M.004 6.997A7 7 0 0 1 7.005 0h55.846c3.866 0 7 3.137 7 6.997v39.006a7 7 0 0 1-7 6.997H7.005c-3.866 0-7-3.137-7-6.997V6.997zm26.654 39.145c1.812 3.667 7.157 3.074 8.14-.904l5.456-22.082 3.717 9.4c1.164 2.945 4.924 3.726 7.14 1.484l8.731-8.834a4.453 4.453 0 0 0 0-6.246 4.33 4.33 0 0 0-6.174 0l-4.05 4.097-6.271-15.864c-1.573-3.978-7.261-3.588-8.289.57l-5.868 23.75-3.454-6.988c-1.332-2.697-4.884-3.28-6.991-1.148l-8.731 8.833a4.453 4.453 0 0 0 0 6.246 4.33 4.33 0 0 0 6.174 0l4.448-4.5 6.022 12.186z" fill="#FFF" fill-rule="evenodd"/>
</svg>