<svg xmlns="http://www.w3.org/2000/svg" width="14" height="16">
    <path fill="#FFF" fill-rule="evenodd" d="M0 1.994A2 2 0 0 1 2.006 0h9.988C13.102 0 14 .895 14 1.994v12.012A2 2 0 0 1 11.994 16H2.006A2.001 2.001 0 0 1 0 14.006V1.994zM2 3c0 .556.446 1 .995 1h8.01c.54 0 .995-.448.995-1 0-.556-.446-1-.995-1h-8.01C2.455 2 2 2.448 2 3zm0 3c0 .556.446 1 .995 1h8.01c.54 0 .995-.448.995-1 0-.556-.446-1-.995-1h-8.01C2.455 5 2 5.448 2 6zm0 3c0 .556.446 1 .995 1h8.01c.54 0 .995-.448.995-1 0-.556-.446-1-.995-1h-8.01C2.455 8 2 8.448 2 9z"/>
</svg>